/* XPM */
static char *graphic[] = {
/* width height num_colors chars_per_pixel */
"16 16 134 2", 
/* colors */
"   c None",
".  c None",
"X  c #0062A4",
"o  c None",
"O  c #0062A4",
"+  c #0062A3",
"@  c #0062A3",
"#  c None",
"$  c #0062A3",
"%  c #0062A3",
"&  c None",
"*  c None",
"=  c #0062A3",
"-  c None",
";  c #0062A4",
":  c None",
">  c #0062A4",
",  c #0062A3",
"<  c #0062A4",
"1  c #0062A3",
"2  c #0062A4",
"3  c None",
"4  c #0062A3",
"5  c #0062A3",
"6  c #0062A3",
"7  c #0062A4",
"8  c None",
"9  c None",
"0  c None",
"q  c None",
"w  c #0062A3",
"e  c None",
"r  c None",
"t  c #0062A3",
"y  c #0062A4",
"u  c None",
"i  c #0062A3",
"p  c #0062A4",
"a  c #0062A4",
"s  c #0062A3",
"d  c #0062A3",
"f  c None",
"g  c None",
"h  c #0062A3",
"j  c #0062A4",
"k  c #0062A4",
"l  c #0062A3",
"z  c #0063A3",
"x  c #0062A4",
"c  c None",
"v  c #0062A3",
"b  c #0062A3",
"n  c #0063A3",
"m  c None",
"M  c None",
"N  c #0062A4",
"B  c #0063A4",
"V  c None",
"C  c #0062A4",
"Z  c #0063A3",
"A  c #0063A4",
"S  c #0063A5",
"D  c #0063A3",
"F  c #0063A4",
"G  c #0063A5",
"H  c #0063A3",
"J  c #0063A3",
"K  c #0063A4",
"L  c #0063A2",
"P  c None",
"I  c #0063A4",
"U  c None",
"Y  c None",
"T  c None",
"R  c #0063A3",
"E  c #0063A4",
"W  c #0063A4",
"Q  c None",
"!  c #0063A3",
"~  c None",
"^  c #0063A3",
"/  c None",
"(  c None",
")  c None",
"_  c None",
"`  c None",
"'  c None",
"]  c None",
"[  c None",
"{  c None",
"}  c None",
"|  c None",
" . c None",
".. c None",
"X. c #0063A3",
"o. c #0063A4",
"O. c #0063A4",
"+. c #0063A4",
"@. c None",
"#. c None",
"$. c None",
"%. c None",
"&. c #0063A4",
"*. c None",
"=. c None",
"-. c None",
";. c #0063A4",
":. c None",
">. c #0063A4",
",. c None",
"<. c None",
"1. c None",
"2. c None",
"3. c #0063A3",
"4. c #0063A4",
"5. c None",
"6. c #0063A3",
"7. c #0063A4",
"8. c None",
"9. c None",
"0. c #0063A4",
"q. c #0063A4",
"w. c #0063A4",
"e. c None",
"r. c None",
"t. c None",
"y. c #0062A4",
"u. c #0062A3",
"i. c #0062A3",
"p. c #0062A3",
"a. c #0062A3",
"s. c #0062A4",
"d. c #0062A4",
"f. c #0062A5",
/* pixels */
"                                ",
"      . e.T @.z y.g Y o .       ",
"    9.8 = d 0.6.w.6.4.2 ' }     ",
"  #.J d ^ 0.= o.l w.w.w.x :.1.  ",
"~ W k L <.p ..c j b w.w.w.i Y   ",
"%.l O.3 2.u.# O X.a 3.C q.w.@ - ",
"p.w.3.y <.] < 6 , i.R % 5 w.h & ",
"E w.w.0.B =.p.t.I K m $ > w.q.8.",
"c C w.C ^ : / a.f.+ n Z O q.w.J ",
"r.w w.3.d. .F 0 d.z @.q 1 w.w.H ",
"( M N w.4 _ u.| V * u.; 7.w.C t.",
"  5.X v < T $.) f > ;.>.&.w.+.Q ",
"    e A *.e ` D s.H t y 7 t r u ",
"      1.[ o ,.G y.S 4.s ! { [   ",
"          u P 9 z f -.U -       ",
"                                "
};
