/* XPM */
static char *graphic[] = {
/* width height num_colors chars_per_pixel */
"32 32 273 2", 
/* colors */
"   c None",
".  c #0062A4",
"X  c None",
"o  c #0062A3",
"O  c #0062A4",
"+  c None",
"@  c None",
"#  c #0062A3",
"$  c None",
"%  c None",
"&  c #0062A4",
"*  c None",
"=  c #0062A3",
"-  c #0062A4",
";  c #0062A3",
":  c None",
">  c #0062A3",
",  c None",
"<  c None",
"1  c #0062A3",
"2  c #0062A4",
"3  c None",
"4  c None",
"5  c None",
"6  c #0062A4",
"7  c None",
"8  c #0062A3",
"9  c #0062A3",
"0  c #0062A4",
"q  c None",
"w  c None",
"e  c None",
"r  c None",
"t  c #0062A4",
"y  c None",
"u  c #0062A3",
"i  c #0062A4",
"p  c None",
"a  c #0062A3",
"s  c #0062A4",
"d  c None",
"f  c #0062A3",
"g  c None",
"h  c #0062A4",
"j  c None",
"k  c None",
"l  c #0062A3",
"z  c #0062A4",
"x  c #0062A3",
"c  c #0062A4",
"v  c None",
"b  c None",
"n  c #0062A3",
"m  c None",
"M  c None",
"N  c None",
"B  c #0062A3",
"V  c None",
"C  c None",
"Z  c None",
"A  c None",
"S  c None",
"D  c #0062A3",
"F  c None",
"G  c None",
"H  c None",
"J  c None",
"K  c #0062A4",
"L  c None",
"P  c #0062A3",
"I  c None",
"U  c None",
"Y  c #0062A4",
"T  c #0062A3",
"R  c None",
"E  c None",
"W  c #0062A3",
"Q  c #0062A4",
"!  c #0062A3",
"~  c #0062A4",
"^  c #0062A3",
"/  c #0062A4",
"(  c #0062A3",
")  c #0062A4",
"_  c None",
"`  c #0062A3",
"'  c None",
"]  c #0062A4",
"[  c #0062A3",
"{  c None",
"}  c None",
"|  c #0062A3",
" . c #0062A4",
".. c None",
"X. c #0062A3",
"o. c None",
"O. c #0063A2",
"+. c None",
"@. c #0063A3",
"#. c #0062A3",
"$. c #0062A3",
"%. c #0062A4",
"&. c None",
"*. c #0063A2",
"=. c #0062A3",
"-. c None",
";. c #0062A3",
":. c #0062A4",
">. c #0063A3",
",. c None",
"<. c None",
"1. c #0062A4",
"2. c None",
"3. c #0062A4",
"4. c None",
"5. c #0063A4",
"6. c #0062A4",
"7. c None",
"8. c #0063A4",
"9. c #0063A3",
"0. c None",
"q. c #0063A4",
"w. c #0063A4",
"e. c #0063A3",
"r. c #0063A4",
"t. c #0063A3",
"y. c #0063A5",
"u. c None",
"i. c #0063A3",
"p. c None",
"a. c #0063A4",
"s. c None",
"d. c None",
"f. c None",
"g. c None",
"h. c #0063A4",
"j. c #0061A4",
"k. c None",
"l. c None",
"z. c None",
"x. c #0063A4",
"c. c #0063A4",
"v. c None",
"b. c #0063A3",
"n. c #0063A4",
"m. c #0063A4",
"M. c None",
"N. c #0063A4",
"B. c #0063A3",
"V. c None",
"C. c #0063A3",
"Z. c #0063A4",
"A. c None",
"S. c #0063A5",
"D. c #0063A3",
"F. c None",
"G. c None",
"H. c #0063A3",
"J. c #0063A4",
"K. c #0063A4",
"L. c None",
"P. c #0063A3",
"I. c #0063A4",
"U. c None",
"Y. c #0063A4",
"T. c None",
"R. c #0063A3",
"E. c None",
"W. c None",
"Q. c #0063A4",
"!. c None",
"~. c #0063A4",
"^. c None",
"/. c #0063A3",
"(. c None",
"). c #0063A3",
"_. c None",
"`. c None",
"'. c None",
"]. c #0063A4",
"[. c None",
"{. c None",
"}. c None",
"|. c #0063A4",
" X c None",
".X c None",
"XX c #0063A4",
"oX c None",
"OX c None",
"+X c #0063A4",
"@X c #0063A3",
"#X c #0063A4",
"$X c None",
"%X c #0063A3",
"&X c #0063A4",
"*X c #0063A3",
"=X c None",
"-X c #0063A4",
";X c #0063A3",
":X c #0063A4",
">X c None",
",X c #0063A3",
"<X c None",
"1X c #0063A3",
"2X c None",
"3X c None",
"4X c #0063A3",
"5X c None",
"6X c None",
"7X c None",
"8X c #0063A4",
"9X c None",
"0X c None",
"qX c #0063A4",
"wX c #0063A4",
"eX c None",
"rX c #0063A3",
"tX c None",
"yX c #0063A4",
"uX c None",
"iX c None",
"pX c #0063A4",
"aX c #0063A3",
"sX c None",
"dX c #0063A4",
"fX c None",
"gX c #0063A3",
"hX c None",
"jX c #0063A4",
"kX c None",
"lX c None",
"zX c None",
"xX c #0063A3",
"cX c #0063A4",
"vX c None",
"bX c #0063A3",
"nX c None",
"mX c #0063A4",
"MX c None",
"NX c #0063A4",
"BX c #0063A4",
"VX c None",
"CX c #0063A4",
"ZX c None",
"AX c None",
"SX c None",
"DX c #0063A4",
"FX c None",
"GX c #0063A4",
"HX c None",
"JX c None",
"KX c None",
"LX c None",
"PX c None",
"IX c None",
"UX c #0062A3",
"YX c #0062A3",
"TX c #0062A4",
"RX c None",
"EX c None",
"WX c None",
"QX c #0062A4",
"!X c None",
"~X c #0062A3",
"^X c None",
"/X c None",
"(X c None",
")X c None",
"_X c #0062A4",
"`X c #0062A4",
"'X c None",
"]X c None",
"[X c #0062A3",
/* pixels */
"                                                                ",
"                                                                ",
"                        lXM.<X-.u.RXAXF.E                       ",
"                WX0XS MXo a D ,X1X8XK 9 w.E.AXE                 ",
"            E 2.zXu jX;.GXGXGXGXGXGXGXGXGXBX#X..$ X             ",
"          l.+.-XCXGXGXGXGXGXGXGXGXGXGXGXGXGXGX$.c , W.          ",
"      WXz.Z.gXGX[ pXGXGXbXP.Y GXGXGXGXGXGXGXGXGXGX) g lX        ",
"    'X4 &XbXGX1.@.- GXGXwX: i ! ] GXGXGXGXGXGXGXGXGX4XJ E       ",
"    ^.n GX3.xXB.IX_XrXGX2 2XsXM 2 GXGXGXGXGXGXGXGXGXGX:XJX      ",
"  L 8 DXGX= /.{ @ SXB 3.R ]XG K.X.GXGXGXGXGXGXGXGXGXGXbXi.F.    ",
"WXN gXGXGXy.>.{.C i tX#XPXA._ ;XGXxXB 6.GXGXGXGXGXGXGXGXcXC     ",
"d Q.GXGXGXf eX Xd.f P.H d `.} ).b.D.*Xl GXGXGXGXGXGXGXGXGX1 (X  ",
"y ^ GXGXGXDX` z % g.w <Xi.NX6.=.*.- I.5.%XY Q D.^ 6.GXGXGX%.T.  ",
"I 3.GXGXGXGXGXbXa Z WXEX| Y.^ t.yXxXb._.a.FXh 3XsX` GXGXGXGXr.'.",
"m 6.GXGXGXGXGXGXn U.VX1 W tXC.T.].! P.$X3 ,  .r.vX6.GXGXGXGXR.L ",
"eXgXGXGXGXGXGXCXt < >XS.T JXk.nXr.}.j.:XFXiX6.c.MXDXGXGXGXGXdXj ",
"z.4XGXGXGXGXGX$.dX; A.!XsXA.C yXN.OXR.CXUXq.NX& { X.GXGXGXGXgX.X",
"ZXs GXGXGXGXGXGX1.1X=XE k H D.:X' C.. i.T.i.`X!XG.+XGXGXGXGX=.6X",
"X b #.GXGXGXGXGX# 6 eX* 0 yXnXp.iXf 9 z.v.x UX5 ~XaXGXGXGXGXxX!.",
"  ,.P.GXGXGXGXGXn.3 L.KXO e.V V.e XX,X[.% O.k.A ! GXGXGXGXGXBXG ",
"  X (.( GXGXGXGXNXO  X7.x.T.2Xw.! h + F.q kXU hX;XGXGXGXGXGXqXu.",
"    VXw.CXGXGXGXGXmXT.% ) c v.7XH v W.p H.$.6.6.GXGXGXGXGXGX> LX",
"      AXZ.;.GXGXGX|.* F @X>.HXWXLX7 9.>.s DXGX6.;.GXGXGXGX:.fX  ",
"        k.Y.;.GX3.sX'.S < lX,.J # ! 6.xXBXGX6.].= jXGXGXbXm.A.  ",
"          ^Xt xXa L.  WX4.L.3X+XS.6 ~ J.Z.GXBX8.(.yXGXGX+X9X    ",
"            s.QX[.WX  /Xi C.Z.@X[X3 >.o.P GXGX/ Y aX;.|.f.WX    ",
"              '.E   E _.+ p.p.T.q AXKXO 3.GXGXGXGX` h.Z X       ",
"                      '.g.TXN.a D ~.} YX[ GXbX^ b.uX0.          ",
"                      5Xp.<.# XXQ ) 8X%Xl N.&.!Xr               ",
"                            oX@ v.k.Z )X4.>X                    ",
"                                                                ",
"                                                                "
};
