/* XPM */
static char *graphic[] = {
/* width height num_colors chars_per_pixel */
"64 64 391 2", 
/* colors */
"   c None",
".  c #0062A4",
"X  c None",
"o  c #0062A5",
"O  c #0062A3",
"+  c #0062A4",
"@  c None",
"#  c None",
"$  c #0062A4",
"%  c None",
"&  c #0062A3",
"*  c #0064A4",
"=  c None",
"-  c #0062A4",
";  c None",
":  c None",
">  c #0062A3",
",  c #0062A4",
"<  c None",
"1  c #0062A3",
"2  c None",
"3  c None",
"4  c #0062A4",
"5  c #0062A3",
"6  c #0062A3",
"7  c None",
"8  c None",
"9  c None",
"0  c None",
"q  c #0062A3",
"w  c #0062A3",
"e  c None",
"r  c #0062A3",
"t  c None",
"y  c None",
"u  c None",
"i  c #0062A4",
"p  c None",
"a  c #0062A3",
"s  c #0062A4",
"d  c #0062A3",
"f  c None",
"g  c #0062A4",
"h  c #0062A3",
"j  c #0062A4",
"k  c None",
"l  c #0062A3",
"z  c None",
"x  c #0062A4",
"c  c None",
"v  c #0062A3",
"b  c None",
"n  c #0062A4",
"m  c None",
"M  c #0062A4",
"N  c None",
"B  c None",
"V  c #0062A3",
"C  c None",
"Z  c #0062A4",
"A  c #0062A4",
"S  c None",
"D  c None",
"F  c #0062A3",
"G  c None",
"H  c #0062A3",
"J  c None",
"K  c None",
"L  c #0062A3",
"P  c None",
"I  c None",
"U  c None",
"Y  c None",
"T  c #0062A4",
"R  c None",
"E  c #0062A3",
"W  c None",
"Q  c None",
"!  c None",
"~  c None",
"^  c None",
"/  c None",
"(  c #0062A3",
")  c #0062A4",
"_  c #0062A4",
"`  c None",
"'  c None",
"]  c None",
"[  c #0062A4",
"{  c None",
"}  c None",
"|  c None",
" . c None",
".. c None",
"X. c #0062A4",
"o. c #0062A3",
"O. c None",
"+. c None",
"@. c None",
"#. c #0062A4",
"$. c #0062A4",
"%. c #0062A3",
"&. c #0062A3",
"*. c None",
"=. c None",
"-. c #0062A4",
";. c #0062A3",
":. c #0062A3",
">. c #0062A3",
",. c #0062A3",
"<. c #0062A3",
"1. c #0062A4",
"2. c None",
"3. c None",
"4. c #0062A4",
"5. c None",
"6. c #0062A3",
"7. c None",
"8. c None",
"9. c #0062A4",
"0. c None",
"q. c #0062A3",
"w. c None",
"e. c #0062A4",
"r. c None",
"t. c #0062A3",
"y. c #0062A3",
"u. c None",
"i. c #0062A4",
"p. c None",
"a. c #0062A3",
"s. c None",
"d. c #0062A4",
"f. c None",
"g. c #0062A3",
"h. c None",
"j. c None",
"k. c #0063A3",
"l. c None",
"z. c None",
"x. c #0062A3",
"c. c #0062A4",
"v. c #0062A4",
"b. c #0063A2",
"n. c #0062A3",
"m. c #0062A3",
"M. c #0062A4",
"N. c None",
"B. c #0063A3",
"V. c #0062A4",
"C. c None",
"Z. c None",
"A. c None",
"S. c #0063A3",
"D. c None",
"F. c #0062A4",
"G. c None",
"H. c None",
"J. c None",
"K. c #0062A4",
"L. c #0062A4",
"P. c #0063A4",
"I. c None",
"U. c #0062A4",
"Y. c None",
"T. c None",
"R. c #0061A3",
"E. c #0063A3",
"W. c #0063A4",
"Q. c None",
"!. c #0063A3",
"~. c #0063A4",
"^. c #0063A5",
"/. c #0063A3",
"(. c #0063A4",
"). c #0063A4",
"_. c #0063A3",
"`. c #0063A4",
"'. c #0063A5",
"]. c None",
"[. c #0063A3",
"{. c #0063A3",
"}. c None",
"|. c None",
" X c #0061A4",
".X c #0063A4",
"XX c #0061A3",
"oX c None",
"OX c #0063A3",
"+X c None",
"@X c #0063A3",
"#X c #0063A4",
"$X c None",
"%X c None",
"&X c None",
"*X c #0063A4",
"=X c #0063A3",
"-X c None",
";X c #0061A4",
":X c #0063A4",
">X c None",
",X c None",
"<X c None",
"1X c #0063A5",
"2X c None",
"3X c #0063A4",
"4X c None",
"5X c #0063A3",
"6X c #0063A4",
"7X c #0061A3",
"8X c #0063A3",
"9X c #0063A4",
"0X c #0063A4",
"qX c None",
"wX c None",
"eX c #0063A3",
"rX c #0063A4",
"tX c #0063A3",
"yX c #0063A4",
"uX c None",
"iX c None",
"pX c #0063A5",
"aX c #0063A3",
"sX c None",
"dX c #0063A3",
"fX c None",
"gX c #0063A4",
"hX c None",
"jX c None",
"kX c #0063A3",
"lX c #0063A4",
"zX c None",
"xX c None",
"cX c #0063A4",
"vX c #0063A3",
"bX c None",
"nX c None",
"mX c None",
"MX c None",
"NX c #0063A3",
"BX c None",
"VX c None",
"CX c None",
"ZX c None",
"AX c #0061A4",
"SX c None",
"DX c None",
"FX c None",
"GX c #0063A4",
"HX c None",
"JX c None",
"KX c #0063A3",
"LX c None",
"PX c #0063A4",
"IX c None",
"UX c None",
"YX c #0063A3",
"TX c None",
"RX c None",
"EX c None",
"WX c None",
"QX c #0063A4",
"!X c None",
"~X c None",
"^X c #0063A4",
"/X c None",
"(X c None",
")X c #0063A4",
"_X c None",
"`X c None",
"'X c #0063A4",
"]X c None",
"[X c None",
"{X c None",
"}X c #0063A3",
"|X c None",
" o c #0063A4",
".o c None",
"Xo c None",
"oo c #0063A3",
"Oo c #0063A4",
"+o c #0063A3",
"@o c None",
"#o c #0063A3",
"$o c #0063A4",
"%o c None",
"&o c #0063A3",
"*o c #0063A4",
"=o c None",
"-o c #0063A3",
";o c None",
":o c None",
">o c #0063A4",
",o c #0063A3",
"<o c None",
"1o c None",
"2o c #0063A4",
"3o c #0063A3",
"4o c None",
"5o c None",
"6o c #0063A4",
"7o c #0063A4",
"8o c None",
"9o c None",
"0o c #0063A3",
"qo c #0063A3",
"wo c None",
"eo c #0063A4",
"ro c None",
"to c None",
"yo c #0063A4",
"uo c #0063A3",
"io c None",
"po c None",
"ao c None",
"so c None",
"do c #0063A4",
"fo c None",
"go c #0063A4",
"ho c None",
"jo c #0063A3",
"ko c #0063A4",
"lo c None",
"zo c None",
"xo c #0063A3",
"co c None",
"vo c #0063A4",
"bo c None",
"no c None",
"mo c #0063A4",
"Mo c #0063A3",
"No c None",
"Bo c None",
"Vo c None",
"Co c #0063A4",
"Zo c None",
"Ao c #0063A3",
"So c #0063A4",
"Do c None",
"Fo c #0063A4",
"Go c None",
"Ho c #0062A2",
"Jo c #0063A4",
"Ko c None",
"Lo c #0063A4",
"Po c #0064A4",
"Io c #0063A4",
"Uo c None",
"Yo c #0064A3",
"To c #0063A4",
"Ro c #0063A4",
"Eo c None",
"Wo c None",
"Qo c None",
"!o c #0062A3",
"~o c None",
"^o c None",
"/o c None",
"(o c #0062A3",
")o c None",
"_o c None",
"`o c None",
"'o c #0062A4",
"]o c #0062A3",
"[o c None",
"{o c #0062A4",
"}o c #0062A3",
"|o c #0062A4",
" O c None",
".O c None",
"XO c None",
"oO c #0062A3",
"OO c None",
"+O c #0062A3",
"@O c #0062A3",
"#O c #0062A3",
"$O c None",
"%O c None",
"&O c #0062A3",
"*O c #0062A4",
"=O c #0062A3",
"-O c #0062A5",
";O c None",
":O c None",
">O c #0062A3",
",O c None",
"<O c #0062A4",
"1O c #0062A5",
"2O c None",
"3O c None",
"4O c #0062A3",
/* pixels */
"                                                                                                                                ",
"                                                                                                                                ",
"                                                                                                                                ",
"                                                                                                                                ",
"                                                                                                                                ",
"                                                    RXsX] =.2 ,XuXVXEX OUot 3O                                                  ",
"                                          .OQ.xXWXho_.w T +oyoko<.,.do&o[ dX4O0.{  Ob                                           ",
"                                    @.% 8 'olX7oJoAoRoRoRoRoRoRoRoRoRoRoRoRoRoToJo2orXfo].(X                                    ",
"                                5.}.r.PXmoAoRoRoRoRoRoRoRoRoRoRoRoRoRoRoRoRoRoRoRoRoRoMo#o. IXb                                 ",
"                            Go[X[.9.U.RoRoRoRoRoRoRoRoRoRoRoRoRoRoRoRoRoRoRoRoRoRoRoRoRoRoToko>O%OCX                            ",
"                        ,Oe :X<.RoRoRoRoRoRoRoRoRoRoRoRoRoRoRoRoRoRoRoRoRoRoRoRoRoRoRoRoRoRoRoAo7oz.J.                          ",
"                    X 2X X&.ToRoRoRoRoRoRoRoRoRoRoRoRoRoRoRoRoRoRoRoRoRoRoRoRoRoRoRoRoRoRoRoRoRoRoxorXEX.O                      ",
"                  NoWXh MoRoRoRoRoRoRoRoRoRoRoRoRoRoRoFoy.RoRoRoRoRoRoRoRoRoRoRoRoRoRoRoRoRoRoRoRoRoAo oUX@.                    ",
"                m A.3oRoRoRoRoRoRouoh joRoRoRoRoRoRo-.JX0.IoRoRoRoRoRoRoRoRoRoRoRoRoRoRoRoRoRoRoRoRoRoRo$.~ @.                  ",
"              MXXXJoRoRoRoRoRoRomolo.o1.RoRoRoRoRoK.co@.} MoRoRoRoRoRoRoRoRoRoRoRoRoRoRoRoRoRoRoRoRoRoRoRo#.< .O                ",
"            /o{.K.RoRoRoRoRoRox.S.b p.xoRoRoRoRoRoV :oKo@XRoMo&o)Xy.RoRoRoRoRoRoRoRoRoRoRoRoRoRoRoRoRoRoRoRol ].                ",
"          wX_.x.RoRoRoRoRoRoRox UoVolXJoAoRoRoRoTo~.RX% dXX.~o].z *oRoRoRoRoRoRoRoRoRoRoRoRoRoRoRoRoRoRoRoRom.3XEo              ",
"        Ko!oxoRoRoRoRoK.m.RoJozo  XOI /X#oRoRoRoq.DX  @.2 u RXN (oa.RoRoRoRoRoRoRoRoRoRoRoRoRoRoRoRoRoRoRoRoRoJolo4o            ",
"      .OFX6.RoRoRoRog.|o oRo*oj.  .OGoR koRoRoRoKXUo      wXtoaXxoRoRoRoRoRoRoRoRoRoRoRoRoRoRoRoRoRoRoRoRoRoRoRo>of             ",
"      _XKXRoRoRoRoRo-o2 + RocX|.  :O+ 9.v 3oRoRo. CX  .O&X8Xy.RoRoRoRoRoRoRoRoRoRoRoRoRoRoRoRoRoRoRoRoRoRoRoRoRoAo_.zX          ",
"    No]oU.RoRoRoRoRoooZXB.RoO No@.1OMo`.N 5oJoa.9o    oXtXCon.RoRoRoRoRovomoRoRoRoRoRoRoRoRoRoRoRoRoRoRoRoRoRoRoRovoG           ",
"    = 1.RoRoRoRoRoRo%.s.OO5 ~   RX- Aoz.3OU V.GXD.    b ,XIX&On.RoRoRoRo*X& RoRoRoRoRoRoRoRoRoRoRoRoRoRoRoRoRoRoRoRo5XEo        ",
"  @.k.U.RoRoRoRoRoRoxolo,OsX@.    XoK.o.- *o%.~ X     CXKoQ.poIoU.o.e.ToCoComoU.RoRoRoRoRoRoRoRoRoRoRoRoRoRoRoRoRoRoFo^         ",
"  ] l RoRoRoRoRoRoRoRo&.!oWXrowX  : i U.Rodo;o3O  ] D #Xi tXd.RovX,XO.-oRoT /Xo.RoRoRoRoRoRoRoRoRoRoRoRoRoRoRoRoRoRoRo6 m       ",
"  4Xv.RoRoRoRoRoRoRoRoRom.JoSopo(X   O&O9X{ NoX ,XgXF.RoRoRoRoRo, ,OoXYXRo#O2XE x.MoRojojoRo<.qoRoRoRoRoRoRoRoRoRoRoRoc.O.      ",
"  h.U.RoRoRoRoRoRoRoRoRoRoRoRod.C.Ko  No5.    fXA ToRoRoRoRoRoRoe.P.- xoRo3.fX#o#O#oK.DoXXRo!.z.a.M.RoRoRoRoRoRoRoRoRoRo/.No    ",
"@.@ORoRoRoRoRoRoRoRoRoRoRoRoRoRov.Y.)o      iX=XAoRoJo6.RoRo9.) MoRoRoRoTow.f =OIXyo$o2X|oRo+O Ob.coa.RoRoRoRoRoRoRoRoRo$.<X    ",
"No6XRoRoRoRoRoRoRoRoRoRoRoRoRoRoRoFoI .O    ~XmoRom.o / a.joB _oH RoRoRoRor.b MX{Xxo}o-XgXRor wowXu.MoRoRoRoRoRoRoRoRoRoLoio    ",
"Ko* RoRoRoRoRoRoRoRoRoRoRoRoRoRoRoa.M N     BoAoRoCo< /XK.&.2 k l RoRoRoRo> Go  VX/.].uXe.Ro9.fXKoAXRoRoRoRoRoRoRoRoRoRoRo#XNo  ",
"=o1 RoRoRoRoRoRoRoRoRoRoRoRoRoRoV.7.c N.    W.RoRo,o_o# voj J.e 4.x v.vo^Xyo{X=o.ONoX ^oU.RoJo~ hXv RoRoRoRoRoRoRoRoRoRoRoOo/o  ",
"CX*XRoRoRoRoRoRoRoRoRoRoRoRoRoRoa.5oCXRX    k.RoRoe.+XsX3 xXGo.XH _X<Oh. OV >.7X8o>X(XOXRoRoMoR J. oRoRoRoRoRoRoRoRoRoRoRovo&X  ",
"X !oRoRoRoRoRoRoRoRoRoRoRoRoRoMox T HXNo    9oa.Ro:.,X    .OC vo&.}._ot LX&.RoRoK.B ]  oRoRoU.boVoQXRoRoRoRoRoRoRoRoRoRoRoIoW   ",
"  nox.RoRoRoRoRoRoRoRoRoRoRoRoIos v.e.2.X   ] OX&.0XJ.    fXT RoU.z..Om 4OAoRoRoFo%X_o9.RoRom.ao% v RoRoRoRoRoRoRoRoRoRoRoRoPo  ",
"  = ;.RoRoRoRoRoRoRoRoRoRoRoRoRoRoRoRotXm     qXfX%     =.i AoRom.'oy f.q.3oAoRo+ou | 6.m.,.Jo/X:Ov V.RoRoRoRoRoRoRoRoRoRoRo+ RX",
"  m g RoRoRoRoRoRoRoRoRoRoRoRoRoRoRoRo:.%O          @.VXs IoRoTo'X+XR ko-.^ #.RoO KomXV.-o{ &O&XMX&X&ORoRoRoRoRoRoRoRoRoRoRo=X(X",
"  .OBoMoRoRoRoRoRoRoRoRoRoRoRoRoRoV.K.U.8o    X Kou ^o#.<.(.e.kXp O.#oRo}X2XR 3Xp   B L.*ojX% Go  t O RoRoRoRoRoRoRoRoRoRoRo5XKo",
"    Y -.RoRoRoRoRoRoRoRoRoRoRoRoK.Wo.XTo!.@.  MX>OE x.RoOoZXr.+X|XA v.IoFo`X@.(XX (X1XRov.4X    ; `.y.RoRoRoRoRoRoRoRoRoRoRoyX5.",
"    3O]oU.RoRoRoRoRoRoRoRoRoRoRovo7 # V.>ORX  : _ CoM U.)Xk Q..OC pX` +oRoA ` oX  = o.Ro:.OO  :orXMoRoRoRoRoRoRoRoRoRoRoRoRoOXNo",
"      s.>oRoRoRoRoRoRoRoRoRoRoRoc.OOJ.oOro    wol i HXt.d m     Q.J.coy.RoTo^X>X  <ox.>o/ =o% , MoRoRoRoRoRoRoRoRoRoRoRoRoRo@O.O",
"      RX3.K.RoRoRoRoRoRoRoRoRoRon.W.b CX2O    EoZ }oVX9.B.RX.OT.' oOvoRoTo$o~X.O  4Xco2 RX  Uok.&oRoRoRoRoRoRoRoRoRoRoRoRoAol.  ",
"        UodXRoRoRoRoRoRoRoRoRoRoRoCo'.fX(X    9 v (o|.~ J.  8.^Xy.AoRoxoi uX2O      @.(XsXKoNoEo/.RoRoRoRoRoRoRoRoRoRoRoRoV.@   ",
"        X G koRoRoRoRoRoRoRoRoRoRoRoU.6o0.RX  :o#.n = j.5.  f.AoRoMo[ Q 1o    NomXI./.0XtXi & j moRoRoRoRoRoRoRoRoRoRoRoRo#.XO  ",
"          (X!oK.RoRoRoRoRoRoRoRoRoRoRoRo).@.  = goU.eodXXO  no6.#ok.<X@.    *.c 3oRoRoRoRoRoRoRoRoRoRoRoRoRoRoRoRoRoRoRoRo, (X  ",
"            : 5XAoRoRoRoRoRoRoRoRoRoRoK.no    roF.RoRo( 2X  sX8 z 3O        (XTX*O:.RoRoRoRoRoRoRoRoRoRoRoRoRoRoRoRoRoRoJoK     ",
"              ,X) RoRoRoRoRoRoRoRoRoRo#.<X  .OP.RoRoK.h H.            ,OnXZouX:oLXv RoRoRoRoRoRoRoRoRoRoRoRoRoRoRoRoRoRoh :     ",
"              .OG 4.RoRoRoRoRoRoRoRoAo}o*.  Eox V.dXfoH.RX        =oZ.;X,oMo:.E yon.RoRoRoRoRoAoRoRoRoRoRoRoRoRoRoRoRoa.+..O    ",
"                RXB goRoRoRoRoRoRoRo1.}.    p 6XK % X       X EoTX$ 9.m.RoRoRoRoRoRoRoRoRoRoRox ooU.MoRoRoRoRoRoRoRoRogXhX      ",
"                  NoI :.RoRoRoRoRoU.}oNo    : wX        (XN.J j uoRoRoRoRoRoRoRoJoU.RoRoRoRox.B.p.-Oa RoRoRoRoRoRoRo-o[o        ",
"                    NoD 9.RoRoRoRo#oEX                NoioF x.&.yX6.K.gX&oRoRoNXS yoRoRoRovok._o@.B moRoRoRoRoRoRoFoP CX        ",
"                      CXHXL ToRoMo^.G.          3O0 :o=oiX~.U.@OwXeXg N.M Ro&.! K y.RoRoRoMo#olo2 soE RoRoRoRoRoa.W.sX          ",
"                        @.p tXx.a 0           k HoX.}X4 r.gXAo$oYo-.bXMXT t.f.!Xr RoRoRoRoRoToE.M *oeoRoRoRoRoJo(.Eo            ",
"                            !XBo,XX         )ooOxoU.a.c.komoJoxo0o&Om (Xc c wor.K.RoRoRoRoRoRovoMoRoRoRoRoRoc.Ho-X              ",
"                              X             %oq <OJ BX$X.oOO~ HX]Xt       G.R i.RoRoRoRoRoRoRoRoRoRoRoRoAo#.D Ko                ",
"                                            qXEo4o          RXGoJ.u 2 b   VXcX}XMoRoRoRoRoRoRoRoRoRoRoFoO }.@.                  ",
"                                                  ,OoXOOio`o_.s  o#o-oR.J.Go .SX<.RoRoRoRoRoRoRoRoJoaX/Xt                       ",
"                                              RX~X[.[ 6.MoRoRoRoRoRoRoa.a oO1XH U.RoRoRoRoRom.ko5 R J.X                         ",
"                                              RX@oPocX9.xoRoRoRoRoRoRoRoRoRoRoRoRoRoRoK.&.aX`o$XQ.                              ",
"                                                  .Om fXbX{oOXGX*o1.3od.<.:.-o#.Z 0XB...Qo-X.O                                  ",
"                                                          X No-XjX_X;O$OuX= >XT.Vo(X.O                                          ",
"                                                                                                                                ",
"                                                                                                                                ",
"                                                                                                                                ",
"                                                                                                                                ",
"                                                                                                                                "
};
